<?xml version="1.0" encoding="utf-8"?>
<!-- Generator: Adobe Illustrator 16.0.0, SVG Export Plug-In . SVG Version: 6.00 Build 0)  -->
<!DOCTYPE svg PUBLIC "-//W3C//DTD SVG 1.1//EN" "http://www.w3.org/Graphics/SVG/1.1/DTD/svg11.dtd">
<svg version="1.1" id="Camada_1" xmlns="http://www.w3.org/2000/svg" xmlns:xlink="http://www.w3.org/1999/xlink" x="0px" y="0px"
	 width="24px" height="24px" viewBox="0 0 24 24" enable-background="new 0 0 24 24" xml:space="preserve">
<path fill="none" d="M0,0h24v24H0V0z"/>
<g>
	<path fill="#81D5FB" d="M20.63,2.428c0-0.036,0-0.072,0-0.107c-0.005-0.146-0.01-0.15-0.165-0.154c-0.021,0-0.042,0-0.063,0
		c-1.634,0-3.268,0-4.9,0c-0.051,0-0.101,0.001-0.15,0.005c-0.039,0.003-0.064,0.029-0.067,0.069
		c-0.004,0.042-0.005,0.085-0.006,0.128c0,0.506,0,1.013,0,1.52c0,0.209-0.004,0.208,0.217,0.208c0.557,0,1.112,0,1.668,0
		c0.045,0,0.099-0.021,0.136,0.026c-0.017,0.063-0.067,0.094-0.106,0.133c-0.826,0.83-1.651,1.658-2.478,2.486
		c-0.03,0.031-0.062,0.059-0.092,0.09c-0.04,0.044-0.08,0.045-0.131,0.012c-0.247-0.158-0.504-0.295-0.777-0.399
		c-0.6-0.226-1.213-0.364-1.857-0.329c0,0.666,0,1.332,0,1.998l0,0l0,0c0.177,0.021,0.354,0.012,0.532,0.042
		c0.35,0.059,0.674,0.181,0.973,0.363c0.595,0.36,1.006,0.876,1.224,1.539c0.116,0.354,0.168,0.724,0.128,1.095
		c-0.062,0.571-0.26,1.087-0.629,1.539c-0.439,0.535-1.006,0.848-1.675,0.986c-0.18,0.037-0.368,0.037-0.551,0.055
		c0,2.826,0,5.652-0.001,8.479c0.3,0.002,0.6,0.004,0.899,0.002c0.109,0,0.125-0.018,0.132-0.119c0.002-0.051,0-0.102,0-0.15
		c0-0.4,0-0.801,0-1.199c0-0.051-0.002-0.1,0.002-0.15c0.007-0.111,0.031-0.139,0.139-0.143c0.051-0.002,0.101-0.002,0.151-0.002
		c0.363,0,0.728,0,1.091,0c0.057,0,0.113,0.002,0.171-0.004c0.063-0.004,0.093-0.033,0.098-0.092c0.005-0.049,0.005-0.1,0.005-0.148
		c0-0.486,0-0.971,0-1.455c0-0.229-0.001-0.229-0.219-0.229c-0.4,0-0.8,0-1.199,0c-0.236-0.002-0.236-0.004-0.238-0.24
		c0-0.014,0-0.027,0-0.041c0-0.779,0-1.557,0-2.334c0-0.314-0.007-0.262,0.266-0.332c0.754-0.191,1.422-0.547,2-1.063
		c0.558-0.496,0.976-1.096,1.248-1.789c0.214-0.542,0.339-1.102,0.337-1.687c-0.002-0.313,0.001-0.627-0.059-0.937
		c-0.118-0.613-0.32-1.196-0.664-1.723c-0.08-0.123-0.056-0.151,0.03-0.235c0.042-0.04,0.081-0.081,0.121-0.121
		c0.565-0.565,1.13-1.13,1.694-1.695c0.217-0.217,0.434-0.435,0.65-0.651c0.04-0.041,0.081-0.08,0.124-0.118
		c0.009-0.008,0.025-0.01,0.038-0.01c0.018,0,0.024,0.012,0.024,0.03c0,0.057,0.002,0.113,0.002,0.171c0,0.549,0,1.098,0,1.647
		c0,0.057-0.001,0.115,0.004,0.171c0.003,0.065,0.024,0.084,0.095,0.088c0.057,0.003,0.114,0.002,0.171,0.002
		c0.464,0.001,0.928,0.001,1.392,0c0.29,0,0.269,0.024,0.269-0.261C20.63,5.737,20.63,4.083,20.63,2.428z"/>
	<path fill="#F48FB1" d="M11.783,14.009c0-0.072,0.001-0.143,0.021-0.213c0.008-0.029,0.022-0.051,0.039-0.068
		c-0.176-0.037-0.356-0.035-0.532-0.076c-0.416-0.098-0.791-0.275-1.127-0.535c-0.545-0.428-0.882-0.987-1.016-1.658
		C9.004,10.632,9.189,9.87,9.7,9.204c0.432-0.561,1.009-0.909,1.711-1.042c0.141-0.027,0.282-0.033,0.423-0.046
		c-0.01-0.011-0.018-0.024-0.025-0.041c-0.056-0.509-0.015-1.02-0.024-1.53c-0.002-0.145-0.038-0.301,0.071-0.429
		c-0.265-0.008-0.524,0.039-0.783,0.081c-0.599,0.099-1.15,0.325-1.667,0.635C9.174,6.972,8.955,7.134,8.752,7.314
		C8.157,7.845,7.71,8.481,7.428,9.23c-0.172,0.456-0.284,0.924-0.29,1.414c-0.001,0.057-0.004,0.115-0.016,0.17
		c-0.016,0.079-0.015,0.155,0.001,0.234c0.011,0.055,0.015,0.113,0.014,0.17c-0.004,0.251,0.041,0.496,0.094,0.739
		c0.117,0.534,0.316,1.035,0.607,1.498c0.28,0.443,0.615,0.838,1.022,1.17c0.367,0.301,0.766,0.545,1.202,0.73
		c0.256,0.109,0.52,0.195,0.791,0.256c0.079,0.018,0.104,0.041,0.104,0.133c0,0.021,0,0.043,0,0.064c0,0.842,0.001,1.684,0,2.525
		c0,0.184-0.002,0.186-0.195,0.186c-0.436,0.002-0.871,0.002-1.306,0.002c-0.057,0-0.114-0.002-0.171,0.004
		c-0.065,0.002-0.086,0.025-0.091,0.094c-0.003,0.033-0.002,0.07-0.002,0.105c0,0.508,0,1.014,0,1.52c0,0.043,0,0.086,0.004,0.127
		c0.004,0.039,0.025,0.068,0.066,0.072c0.057,0.004,0.113,0.006,0.17,0.006c0.421,0,0.842,0,1.263,0c0.056,0,0.114,0,0.171,0.004
		c0.064,0.004,0.086,0.025,0.088,0.096c0.003,0.1,0.002,0.199,0.002,0.299c0,0.414,0,0.828,0.001,1.242
		c0,0.105,0.018,0.123,0.126,0.123c0.257,0.004,0.514,0,0.77-0.002c-0.075-0.08-0.074-0.184-0.074-0.281
		C11.782,19.288,11.782,16.647,11.783,14.009z"/>
	<path fill="#F48FB1" d="M11.785,6.545c0.009,0.51-0.032,1.021,0.024,1.53c0.007,0.016,0.016,0.029,0.025,0.041
		c0.008,0,0.014-0.001,0.022-0.002l0,0c0-0.666,0-1.332,0-1.998C11.748,6.245,11.783,6.4,11.785,6.545z"/>
	<path fill="#F48FB1" d="M11.842,13.728c-0.017,0.018-0.03,0.039-0.039,0.068c-0.02,0.07-0.021,0.141-0.021,0.213
		c-0.001,2.639-0.001,5.279,0,7.92c0,0.098-0.001,0.201,0.074,0.281c0.001-2.826,0.001-5.652,0.001-8.479
		C11.853,13.729,11.848,13.729,11.842,13.728z"/>
</g>
</svg>
